<svg width="40" height="39" viewBox="0 0 40 39" fill="none" xmlns="http://www.w3.org/2000/svg">
<path d="M15.1397 13.1271H12.1117C11.6828 13.1271 11.3235 12.9723 11.0338 12.6626C10.7441 12.3529 10.5988 11.9701 10.5978 11.5142C10.5968 11.0582 10.7421 10.6754 11.0338 10.3657C11.3255 10.056 11.6848 9.90119 12.1117 9.90119H15.1397V6.67524C15.1397 6.21823 15.285 5.83541 15.5757 5.5268C15.8664 5.21818 16.2257 5.06334 16.6536 5.06226C17.0816 5.06119 17.4414 5.21603 17.7331 5.5268C18.0248 5.83757 18.1696 6.22038 18.1676 6.67524V9.90119H21.1955C21.6245 9.90119 21.9843 10.056 22.275 10.3657C22.5657 10.6754 22.7105 11.0582 22.7095 11.5142C22.7085 11.9701 22.5631 12.3534 22.2735 12.6642C21.9838 12.975 21.6245 13.1293 21.1955 13.1271H18.1676V16.3531C18.1676 16.8101 18.0223 17.1935 17.7316 17.5031C17.4409 17.8128 17.0816 17.9671 16.6536 17.9661C16.2257 17.965 15.8664 17.8101 15.5757 17.5015C15.285 17.1929 15.1397 16.8101 15.1397 16.3531V13.1271ZM9.0838 38.9348C8.25112 38.9348 7.53854 38.6192 6.94608 37.9879C6.35361 37.3567 6.05688 36.597 6.05587 35.7088C6.05486 34.8206 6.35159 34.0614 6.94608 33.4313C7.54056 32.8011 8.25314 32.485 9.0838 32.4829C9.91446 32.4807 10.6275 32.7968 11.223 33.4313C11.8185 34.0657 12.1148 34.8249 12.1117 35.7088C12.1087 36.5927 11.8125 37.3524 11.223 37.9879C10.6336 38.6235 9.92052 38.9391 9.0838 38.9348ZM24.2235 38.9348C23.3908 38.9348 22.6782 38.6192 22.0857 37.9879C21.4933 37.3567 21.1965 36.597 21.1955 35.7088C21.1945 34.8206 21.4913 34.0614 22.0857 33.4313C22.6802 32.8011 23.3928 32.485 24.2235 32.4829C25.0541 32.4807 25.7672 32.7968 26.3627 33.4313C26.9582 34.0657 27.2544 34.8249 27.2514 35.7088C27.2484 36.5927 26.9521 37.3524 26.3627 37.9879C25.7733 38.6235 25.0602 38.9391 24.2235 38.9348ZM3.02794 9.90119H1.51397C1.08501 9.90119 0.725699 9.74634 0.436027 9.43665C0.146355 9.12696 0.00101453 8.74415 5.22057e-06 8.28821C-0.00100409 7.83228 0.144337 7.44947 0.436027 7.13977C0.727718 6.83008 1.08703 6.67524 1.51397 6.67524H4.01201C4.28957 6.67524 4.55452 6.75589 4.80685 6.91718C5.05917 7.07848 5.24842 7.30699 5.37458 7.6027L11.3926 21.192H21.9904L27.4785 10.7077C27.6046 10.4388 27.7813 10.2372 28.0084 10.1028C28.2355 9.9684 28.4878 9.90119 28.7654 9.90119C29.3457 9.90119 29.7812 10.1636 30.0719 10.6883C30.3626 11.2131 30.3686 11.7437 30.0901 12.2803L24.6776 22.7243C24.4001 23.262 24.0282 23.6787 23.5618 23.9744C23.0955 24.2701 22.5843 24.418 22.0282 24.418H10.7492L9.0838 27.6439H25.7374C26.1664 27.6439 26.5262 27.7988 26.8169 28.1085C27.1076 28.4182 27.2524 28.801 27.2514 29.2569C27.2504 29.7128 27.105 30.0962 26.8154 30.407C26.5257 30.7177 26.1664 30.872 25.7374 30.8699H9.0838C7.94832 30.8699 7.08385 30.3457 6.49038 29.2972C5.8969 28.2488 5.87823 27.1869 6.43436 26.1116L8.47821 22.1598L3.02794 9.90119Z" fill="white"/>
<path d="M32.6088 14.7826C36.6909 14.7826 40.0001 11.4734 40.0001 7.39131C40.0001 3.3092 36.6909 0 32.6088 0C28.5267 0 25.2175 3.3092 25.2175 7.39131C25.2175 11.4734 28.5267 14.7826 32.6088 14.7826Z" fill="#EBADAD"/>
<path d="M31.2784 5.6V4.77H33.1584V12H32.2384V5.6H31.2784Z" fill="black"/>
</svg>
