<svg width="63" height="18" viewBox="0 0 63 18" fill="none" xmlns="http://www.w3.org/2000/svg">
<path d="M12.958 0.973V3.921H8.448V17H4.73V3.921H0.22V0.973H12.958ZM18.0099 5.593V17H14.5999V5.593H18.0099ZM18.4059 2.469C18.4059 2.74033 18.3509 2.997 18.2409 3.239C18.1309 3.47367 17.9806 3.68267 17.7899 3.866C17.5993 4.042 17.3756 4.185 17.1189 4.295C16.8696 4.39767 16.6019 4.449 16.3159 4.449C16.0373 4.449 15.7769 4.39767 15.5349 4.295C15.2929 4.185 15.0766 4.042 14.8859 3.866C14.7026 3.68267 14.5559 3.47367 14.4459 3.239C14.3433 2.997 14.2919 2.74033 14.2919 2.469C14.2919 2.19033 14.3433 1.93 14.4459 1.688C14.5559 1.446 14.7026 1.23333 14.8859 1.05C15.0766 0.866666 15.2929 0.723666 15.5349 0.620999C15.7769 0.518333 16.0373 0.467 16.3159 0.467C16.6019 0.467 16.8696 0.518333 17.1189 0.620999C17.3756 0.723666 17.5993 0.866666 17.7899 1.05C17.9806 1.23333 18.1309 1.446 18.2409 1.688C18.3509 1.93 18.4059 2.19033 18.4059 2.469ZM20.7634 17V5.593H22.8754C23.088 5.593 23.264 5.64067 23.4034 5.736C23.55 5.83133 23.6527 5.97433 23.7114 6.165L23.8984 6.781C24.089 6.583 24.287 6.40333 24.4924 6.242C24.6977 6.07333 24.9177 5.93033 25.1524 5.813C25.3944 5.68833 25.651 5.593 25.9224 5.527C26.201 5.45367 26.5054 5.417 26.8354 5.417C27.5247 5.417 28.093 5.59667 28.5404 5.956C28.995 6.308 29.3397 6.781 29.5744 7.375C29.765 7.023 29.996 6.72233 30.2674 6.473C30.546 6.22367 30.843 6.022 31.1584 5.868C31.481 5.714 31.8184 5.60033 32.1704 5.527C32.5297 5.45367 32.8854 5.417 33.2374 5.417C33.89 5.417 34.4694 5.516 34.9754 5.714C35.4814 5.90467 35.903 6.187 36.2404 6.561C36.585 6.92767 36.8454 7.38233 37.0214 7.925C37.1974 8.46033 37.2854 9.069 37.2854 9.751V17H33.8754V9.751C33.8754 8.57033 33.3694 7.98 32.3574 7.98C31.8954 7.98 31.5104 8.134 31.2024 8.442C30.9017 8.74267 30.7514 9.179 30.7514 9.751V17H27.3414V9.751C27.3414 9.09833 27.213 8.64 26.9564 8.376C26.6997 8.112 26.322 7.98 25.8234 7.98C25.5154 7.98 25.222 8.04967 24.9434 8.189C24.672 8.32833 24.4154 8.51533 24.1734 8.75V17H20.7634ZM39.7126 17V0.532999H43.1226V6.803C43.5479 6.385 44.0282 6.05133 44.5636 5.802C45.1062 5.54533 45.7406 5.417 46.4666 5.417C47.0606 5.417 47.6106 5.54533 48.1166 5.802C48.6226 6.05867 49.0589 6.43633 49.4256 6.935C49.7922 7.42633 50.0782 8.03133 50.2836 8.75C50.4962 9.46867 50.6026 10.2863 50.6026 11.203C50.6026 12.061 50.4816 12.853 50.2396 13.579C50.0049 14.305 49.6712 14.9357 49.2386 15.471C48.8132 16.0063 48.2999 16.4243 47.6986 16.725C47.1046 17.0257 46.4446 17.176 45.7186 17.176C45.3812 17.176 45.0769 17.143 44.8056 17.077C44.5416 17.011 44.2959 16.9193 44.0686 16.802C43.8486 16.6773 43.6432 16.5307 43.4526 16.362C43.2692 16.1933 43.0896 16.01 42.9136 15.812L42.7926 16.384C42.7412 16.6187 42.6459 16.78 42.5066 16.868C42.3746 16.956 42.1986 17 41.9786 17H39.7126ZM45.2786 7.98C45.0292 7.98 44.8019 8.00567 44.5966 8.057C44.3986 8.101 44.2116 8.167 44.0356 8.255C43.8669 8.343 43.7092 8.45667 43.5626 8.596C43.4159 8.728 43.2692 8.882 43.1226 9.058V13.898C43.3792 14.184 43.6579 14.3857 43.9586 14.503C44.2592 14.613 44.5746 14.668 44.9046 14.668C45.2199 14.668 45.5096 14.6057 45.7736 14.481C46.0376 14.3563 46.2649 14.1583 46.4556 13.887C46.6536 13.6083 46.8076 13.249 46.9176 12.809C47.0276 12.369 47.0826 11.8337 47.0826 11.203C47.0826 10.6017 47.0386 10.0957 46.9506 9.685C46.8626 9.27433 46.7379 8.94433 46.5766 8.695C46.4226 8.43833 46.2356 8.255 46.0156 8.145C45.7956 8.035 45.5499 7.98 45.2786 7.98ZM55.6643 5.593V12.831C55.6643 13.3957 55.7926 13.832 56.0493 14.14C56.306 14.448 56.6836 14.602 57.1823 14.602C57.5563 14.602 57.9046 14.525 58.2273 14.371C58.5573 14.217 58.8763 14.0007 59.1843 13.722V5.593H62.5943V17H60.4823C60.057 17 59.7783 16.8093 59.6463 16.428L59.4373 15.768C59.2173 15.9807 58.99 16.175 58.7553 16.351C58.5206 16.5197 58.2676 16.6663 57.9963 16.791C57.7323 16.9083 57.4463 17 57.1383 17.066C56.8303 17.1393 56.493 17.176 56.1263 17.176C55.503 17.176 54.9493 17.0697 54.4653 16.857C53.9886 16.637 53.5853 16.3327 53.2553 15.944C52.9253 15.5553 52.676 15.097 52.5073 14.569C52.3386 14.041 52.2543 13.4617 52.2543 12.831V5.593H55.6643Z" fill="black"/>
</svg>
