<svg width="16" height="16" viewBox="0 0 16 16" fill="none" xmlns="http://www.w3.org/2000/svg">
<g clip-path="url(#clip0_151_485)">
<path d="M2.15137 1.26123H14.1426V5.72623H2.15137V1.26123Z" fill="white"/>
<path d="M2.15137 5.8512H14.1426V15.9999H2.15137V5.8512Z" fill="#006CA2"/>
<path d="M3.69871 3.8538C3.58371 3.8538 3.48496 3.86005 3.48496 4.0238C3.48496 4.1038 3.48121 4.18255 3.48621 4.26255C3.48746 4.3063 3.49371 4.35505 3.51496 4.39255C3.53746 4.4313 3.56371 4.4313 3.59996 4.4363C3.64746 4.4438 3.68746 4.44505 3.73621 4.44505C3.84746 4.44505 3.96121 4.3738 4.00121 4.2613C4.02121 4.2013 4.02246 4.1313 3.99246 4.05255C3.93996 3.92505 3.81121 3.8538 3.69871 3.8538ZM6.69746 3.6538L6.69371 3.63755C6.67121 3.54505 6.64996 3.45255 6.62871 3.36005C6.61246 3.3288 6.60121 3.2838 6.55996 3.29505C6.53121 3.30255 6.51996 3.3388 6.51246 3.3588L6.50371 3.3688C6.48371 3.4963 6.46121 3.6238 6.43746 3.7513L6.43496 3.76505L6.42746 3.7963C6.42371 3.8338 6.41871 3.87505 6.43121 3.9113L6.46121 3.9488L6.50996 3.96505L6.54371 3.97755H6.65996C6.80121 3.9363 6.71496 3.7638 6.70121 3.66505L6.69746 3.6538ZM3.60246 3.1238C3.71371 3.1463 3.85871 3.10755 3.92371 2.98005C3.97121 2.8863 3.96246 2.77505 3.90621 2.6913L3.88621 2.6638C3.84121 2.61255 3.77621 2.5988 3.71746 2.5963C3.65871 2.59255 3.59121 2.5963 3.53621 2.62505L3.50871 2.6563C3.49371 2.68505 3.48121 2.7238 3.47496 2.76505C3.45871 2.8638 3.47121 2.98255 3.50996 3.05505C3.53121 3.0938 3.56371 3.1163 3.60246 3.1238Z" fill="#78A3AD"/>
<path d="M13.77 0.347534H2.22995C1.59495 0.347534 1.07495 0.867534 1.07495 1.50253V16H6.06495V13.5475C6.06495 13.1938 6.3537 12.9038 6.70745 12.9038H9.2887C9.64245 12.9038 9.93245 13.1938 9.93245 13.5475V16H14.9225V1.50253C14.925 0.867534 14.405 0.347534 13.77 0.347534ZM4.4237 11.455H2.79745V9.49253H4.4237V11.455ZM4.4237 8.45253H2.79745V6.49003H4.4237V8.45253ZM4.8912 4.45753C4.78745 4.70253 4.6037 4.91378 4.3687 5.01503C4.0912 5.13503 3.7912 5.14878 3.4962 5.14128C3.3287 5.13753 3.1012 5.15003 2.95745 5.04753C2.6812 4.84878 2.7312 4.57128 2.72745 4.26628C2.7237 3.99378 2.7237 3.72128 2.71495 3.45003C2.70745 3.19878 2.7112 2.95378 2.7162 2.70753C2.71995 2.52628 2.6712 2.28628 2.7962 2.13628C3.00495 1.88378 3.40245 1.87753 3.6962 1.90003C4.17495 1.93753 4.7637 2.17378 4.69995 2.81003C4.6887 2.90378 4.65995 3.00253 4.61245 3.08003C4.56245 3.16253 4.4587 3.26128 4.50745 3.37503C4.5637 3.50378 4.7337 3.57378 4.8112 3.69878C4.90495 3.85128 4.9487 4.00003 4.9512 4.14003C4.9537 4.25003 4.93245 4.35878 4.8912 4.45753ZM7.3362 11.455H5.70995V9.49253H7.3362V11.455ZM7.3362 8.45253H5.70995V6.49003H7.3362V8.45253ZM7.46495 5.12878C7.3262 5.16378 7.0512 5.13503 6.98745 4.98503C6.8987 4.77503 6.93995 4.53128 6.6412 4.49253C6.5012 4.47378 6.2987 4.53503 6.23995 4.67378C6.17995 4.81878 6.22745 4.99753 6.07245 5.09628C5.96745 5.16378 5.81995 5.17378 5.6987 5.15378C5.4262 5.11003 5.3612 4.90878 5.4012 4.65878C5.4212 4.53753 5.44745 4.41628 5.4787 4.29628C5.5387 4.05253 5.6137 3.81128 5.6687 3.56753C5.7262 3.31253 5.7687 3.05503 5.8387 2.80128C5.9612 2.35003 6.18495 1.75503 6.77995 1.95503C7.03495 2.04003 7.1062 2.32253 7.1887 2.54753C7.3087 2.87253 7.3562 3.23003 7.4312 3.56753C7.4862 3.81128 7.55995 4.05253 7.6212 4.29628C7.6562 4.44128 7.72495 4.65878 7.70495 4.83753C7.68995 4.97503 7.6262 5.08628 7.46495 5.12878ZM10.2487 11.455H8.62245V9.49253H10.2487V11.455ZM10.2487 8.45253H8.62245V6.49003H10.2487V8.45253ZM10.6637 4.22253C10.6612 4.31878 10.6562 4.43253 10.64 4.54628C10.6162 4.72253 10.5487 5.02128 10.33 5.04253C10.2587 5.05003 10.1812 5.04378 10.1187 5.02503C9.76995 4.92253 9.70995 4.54628 9.50245 4.28878C9.4487 4.22253 9.4112 4.15253 9.36995 4.08128C9.32245 4.00003 9.22745 3.84003 9.11995 3.82628C8.98745 3.80878 9.01745 3.99378 9.0187 4.08503C9.02245 4.36003 9.1137 4.94628 8.7962 5.08503C8.32495 5.29128 8.20745 4.65128 8.19995 4.35878C8.18995 3.99378 8.1487 3.62878 8.1487 3.26378C8.1487 2.97878 8.11745 2.37378 8.36745 2.16753C8.77245 1.83378 9.01495 2.18378 9.27245 2.48253C9.38995 2.62003 9.4662 2.76128 9.56495 2.91253C9.6237 3.00253 9.7787 3.10003 9.8262 2.95503C9.9062 2.71753 9.82245 2.42003 9.94745 2.20003C10.1012 1.93128 10.54 2.00253 10.655 2.27128C10.6762 2.32003 10.6825 2.40253 10.6887 2.45878C10.7562 3.04003 10.6737 3.63628 10.6637 4.22253ZM13.1625 11.455H11.535V9.49253H13.1625V11.455ZM13.1625 8.45253H11.535V6.49003H13.1625V8.45253ZM13.4237 4.87128C13.3525 5.02628 13.1487 5.18003 12.975 5.11503C12.7775 5.04128 12.6787 4.84003 12.6037 4.65628C12.5325 4.47878 12.4475 4.28878 12.285 4.17253C12.2025 4.11253 12.1337 4.14503 12.0775 4.20753C11.8537 4.45128 12.2162 4.95128 11.8437 5.11503C11.7562 5.15253 11.63 5.14878 11.5362 5.13878C11.0825 5.09128 11.1775 4.63378 11.175 4.29878C11.1725 4.01128 11.1725 3.72628 11.1625 3.44503C11.1537 3.18753 11.1587 2.94003 11.165 2.69378C11.1662 2.58878 11.1737 2.50128 11.1862 2.39753C11.2012 2.26628 11.19 2.11503 11.3187 2.02878C11.4387 1.94878 11.6075 1.96878 11.7387 2.00378C11.9112 2.05003 11.9112 2.11628 11.9687 2.28003C12.0112 2.40378 12.0162 2.54753 12.0187 2.67878C12.0212 2.75628 12.035 2.86378 12.1312 2.86503C12.23 2.86503 12.3137 2.69753 12.37 2.63253C12.4237 2.56878 12.485 2.51128 12.5175 2.43503C12.6312 2.17753 12.9987 1.93128 13.26 2.17378C13.4862 2.38253 13.3125 2.67378 13.16 2.86753C13.0212 3.04503 12.7775 3.24128 12.8662 3.49378C12.9737 3.80378 13.2025 4.07253 13.3337 4.37378C13.375 4.46628 13.435 4.59378 13.4475 4.71253C13.45 4.76753 13.4462 4.82253 13.4237 4.87128Z" fill="#78A3AD"/>
</g>
<defs>
<clipPath id="clip0_151_485">
<rect width="16" height="16" fill="white"/>
</clipPath>
</defs>
</svg>
