<svg width="22" height="17" viewBox="0 0 22 17" fill="none" xmlns="http://www.w3.org/2000/svg">
<g clip-path="url(#clip0_151_476)">
<path d="M3.99951 16.9155V15.7904C3.99951 15.359 3.73533 15.0778 3.28253 15.0778C3.05617 15.0778 2.8109 15.1528 2.64109 15.3966C2.50909 15.1903 2.32046 15.0778 2.03747 15.0778C1.84875 15.0778 1.6602 15.134 1.50921 15.3403V15.1153H1.11304V16.9155H1.50921V15.9216C1.50921 15.6029 1.67902 15.4528 1.94319 15.4528C2.20719 15.4528 2.33937 15.6216 2.33937 15.9216V16.9155H2.73554V15.9216C2.73554 15.6029 2.92408 15.4528 3.16935 15.4528C3.43352 15.4528 3.56552 15.6216 3.56552 15.9216V16.9155H3.99951ZM9.86654 15.1153H9.22519V14.5714H8.82902V15.1153H8.47058V15.4715H8.82894V16.2967C8.82894 16.7093 8.99875 16.9531 9.45155 16.9531C9.62137 16.9531 9.80991 16.8968 9.94208 16.8218L9.82882 16.4842C9.71564 16.5592 9.58364 16.578 9.48928 16.578C9.30065 16.578 9.22519 16.4655 9.22519 16.2779V15.4715H9.86654V15.1153ZM13.2246 15.0777C12.9983 15.0777 12.8474 15.1903 12.753 15.3403V15.1153H12.3568V16.9155H12.753V15.9029C12.753 15.6029 12.885 15.4341 13.1303 15.4341C13.2057 15.4341 13.3001 15.4529 13.3755 15.4716L13.4887 15.0965C13.4133 15.0778 13.3001 15.0778 13.2246 15.0778M8.14986 15.2654C7.96114 15.1341 7.69705 15.0778 7.41406 15.0778C6.96134 15.0778 6.65953 15.3029 6.65953 15.6592C6.65953 15.9593 6.88589 16.128 7.28206 16.1843L7.47069 16.2031C7.67823 16.2405 7.79141 16.2968 7.79141 16.3906C7.79141 16.5218 7.64051 16.6156 7.37633 16.6156C7.11216 16.6156 6.90471 16.5218 6.77262 16.4281L6.58399 16.7281C6.79153 16.8781 7.07452 16.9531 7.35743 16.9531C7.88569 16.9531 8.18758 16.7094 8.18758 16.3718C8.18758 16.053 7.94232 15.8842 7.56497 15.828L7.37633 15.8092C7.20652 15.7904 7.07452 15.753 7.07452 15.6405C7.07452 15.5092 7.20652 15.4342 7.41406 15.4342C7.64051 15.4342 7.86687 15.5279 7.98004 15.5842L8.14986 15.2654ZM18.6768 15.0778C18.4503 15.0778 18.2994 15.1903 18.2051 15.3404V15.1153H17.8089V16.9156H18.2051V15.903C18.2051 15.603 18.3371 15.4342 18.5823 15.4342C18.6579 15.4342 18.7522 15.453 18.8277 15.4717L18.9409 15.0966C18.8654 15.0778 18.7522 15.0778 18.6768 15.0778ZM13.6208 16.0155C13.6208 16.5593 13.9981 16.9531 14.583 16.9531C14.8471 16.9531 15.0357 16.8969 15.2243 16.7469L15.0357 16.4281C14.8848 16.5406 14.7339 16.5968 14.5641 16.5968C14.2433 16.5968 14.017 16.3718 14.017 16.0155C14.017 15.678 14.2433 15.4529 14.5641 15.4342C14.7339 15.4342 14.8848 15.4904 15.0357 15.603L15.2243 15.2841C15.0357 15.1341 14.8471 15.0778 14.583 15.0778C13.9981 15.0778 13.6208 15.4717 13.6208 16.0155ZM17.2807 16.0155V15.1153H16.8845V15.3404C16.7525 15.1716 16.5638 15.0778 16.3186 15.0778C15.8092 15.0778 15.413 15.4717 15.413 16.0155C15.413 16.5593 15.8092 16.9531 16.3186 16.9531C16.5826 16.9531 16.7714 16.8594 16.8845 16.6906V16.9156H17.2807V16.0155ZM15.828 16.0155C15.828 15.6967 16.0356 15.4342 16.3751 15.4342C16.6958 15.4342 16.9223 15.678 16.9223 16.0155C16.9223 16.3343 16.6958 16.5968 16.3751 16.5968C16.0356 16.578 15.828 16.3343 15.828 16.0155ZM11.0929 15.0778C10.5646 15.0778 10.1873 15.4529 10.1873 16.0155C10.1873 16.5781 10.5645 16.9531 11.1117 16.9531C11.3758 16.9531 11.64 16.8781 11.8475 16.7094L11.6588 16.4281C11.5079 16.5406 11.3192 16.6156 11.1306 16.6156C10.8853 16.6156 10.6401 16.5031 10.5834 16.1842H11.9229V16.0343C11.9419 15.4529 11.6023 15.0778 11.0929 15.0778ZM11.0928 15.4154C11.338 15.4154 11.5079 15.5655 11.5455 15.8468H10.6023C10.64 15.603 10.8098 15.4154 11.0928 15.4154ZM20.9216 16.0155V14.4027H20.5255V15.3404C20.3934 15.1716 20.2047 15.0778 19.9595 15.0778C19.4501 15.0778 19.054 15.4717 19.054 16.0155C19.054 16.5593 19.4501 16.9531 19.9595 16.9531C20.2236 16.9531 20.4123 16.8594 20.5255 16.6906V16.9156H20.9216V16.0155ZM19.469 16.0155C19.469 15.6967 19.6765 15.4342 20.0161 15.4342C20.3368 15.4342 20.5632 15.678 20.5632 16.0155C20.5632 16.3343 20.3368 16.5968 20.0161 16.5968C19.6765 16.578 19.469 16.3343 19.469 16.0155ZM6.22546 16.0155V15.1153H5.82929V15.3404C5.6972 15.1716 5.50857 15.0778 5.2633 15.0778C4.75395 15.0778 4.35778 15.4717 4.35778 16.0155C4.35778 16.5593 4.75395 16.9531 5.2633 16.9531C5.52747 16.9531 5.71611 16.8594 5.82929 16.6906V16.9156H6.22546V16.0155ZM4.75395 16.0155C4.75395 15.6967 4.96149 15.4342 5.30103 15.4342C5.62175 15.4342 5.84819 15.678 5.84819 16.0155C5.84819 16.3343 5.62175 16.5968 5.30103 16.5968C4.96149 16.578 4.75395 16.3343 4.75395 16.0155Z" fill="black"/>
<path d="M8.01782 1.44397H13.9604V12.0584H8.01782V1.44397Z" fill="#FF5F00"/>
<path d="M8.39515 6.75122C8.39515 4.59461 9.41385 2.68173 10.9796 1.44397C9.82893 0.543829 8.37633 0 6.79164 0C3.03729 0 0 3.01925 0 6.75122C0 10.4832 3.03729 13.5024 6.79156 13.5024C8.37624 13.5024 9.82885 12.9586 10.9796 12.0584C9.41385 10.8394 8.39515 8.90783 8.39515 6.75122Z" fill="#EB001B"/>
<path d="M21.9782 6.75122C21.9782 10.4831 18.9409 13.5024 15.1866 13.5024C13.6019 13.5024 12.1493 12.9586 10.9985 12.0584C12.5832 10.8207 13.5831 8.90783 13.5831 6.75122C13.5831 4.59461 12.5643 2.68173 10.9985 1.44397C12.1492 0.543829 13.6019 0 15.1866 0C18.9409 0 21.9782 3.03805 21.9782 6.75122Z" fill="#F79E1B"/>
</g>
<defs>
<clipPath id="clip0_151_476">
<rect width="22" height="17" fill="white"/>
</clipPath>
</defs>
</svg>
