<svg width="22" height="14" viewBox="0 0 22 14" fill="none" xmlns="http://www.w3.org/2000/svg">
<g clip-path="url(#clip0_151_483)">
<path d="M20.5333 14H1.46667C1.07768 14 0.70463 13.8525 0.429577 13.5899C0.154523 13.3274 0 12.9713 0 12.6L0 1.4C0 1.0287 0.154523 0.672601 0.429577 0.410051C0.70463 0.1475 1.07768 0 1.46667 0L20.5333 0C20.9223 0 21.2954 0.1475 21.5704 0.410051C21.8455 0.672601 22 1.0287 22 1.4V12.6C22 12.9713 21.8455 13.3274 21.5704 13.5899C21.2954 13.8525 20.9223 14 20.5333 14ZM8.57511 6.02292C8.55837 6.02313 8.5419 6.0269 8.52689 6.03397C8.51187 6.04103 8.4987 6.05121 8.48833 6.06375C8.46426 6.08715 8.45048 6.11846 8.44983 6.15125C8.44983 6.1635 8.50972 6.33792 8.63806 6.6955L8.9155 7.469L9.04444 7.8295C9.18907 8.23394 9.26465 8.449 9.27117 8.47467C8.98665 8.81091 8.72944 9.16739 8.50178 9.541L8.47856 9.58183L8.47733 9.59642C8.47733 9.65475 8.52683 9.70258 8.58856 9.70258L8.60506 9.70142H8.60444H9.34878C9.38348 9.70121 9.41755 9.6926 9.44781 9.67637C9.47806 9.66015 9.50349 9.63685 9.52172 9.60867L9.52233 9.60808L11.9863 6.21367C11.9993 6.19738 12.0064 6.17753 12.0065 6.15708L12.0059 6.14833V6.14892C12.0051 6.11616 11.9913 6.08491 11.9674 6.06142C11.9571 6.04892 11.944 6.03877 11.9291 6.0317C11.9142 6.02464 11.8979 6.02084 11.8812 6.02058H11.1363C11.1015 6.0208 11.0673 6.02941 11.037 6.04563C11.0066 6.06185 10.9811 6.08514 10.9627 6.11333L10.9621 6.11392L9.93544 7.55242L9.51072 6.16875C9.49983 6.12659 9.47448 6.08911 9.43872 6.06226C9.40296 6.03542 9.35883 6.02075 9.31333 6.02058L9.29744 6.02117H9.29806L8.57511 6.02292ZM17.1172 5.95817H17.1013C16.6381 5.95817 16.2219 6.15008 15.9347 6.45458L15.9335 6.45575C15.6194 6.76587 15.444 7.18053 15.4446 7.61192V7.62767V7.62708C15.4434 7.644 15.4434 7.66442 15.4434 7.68425C15.4434 7.9975 15.5711 8.28275 15.7789 8.4945L15.7783 8.49392C15.8965 8.6038 16.0372 8.68922 16.1915 8.74483C16.3459 8.80044 16.5106 8.82503 16.6754 8.81708H16.6723C16.8783 8.81475 17.0738 8.7745 17.2523 8.70217L17.2425 8.70567C17.4228 8.64092 17.5756 8.54 17.6959 8.41167L17.6972 8.4105C17.6911 8.44375 17.6843 8.47175 17.6764 8.49858L17.6776 8.49275C17.6667 8.52847 17.6601 8.56526 17.6581 8.60242V8.60358C17.6581 8.70158 17.7002 8.75117 17.7839 8.75117H18.4507C18.4767 8.7534 18.5029 8.75062 18.5278 8.74301C18.5527 8.73539 18.5758 8.72309 18.5956 8.70683C18.6154 8.69057 18.6316 8.67068 18.6433 8.64834C18.6549 8.626 18.6617 8.60165 18.6633 8.57675V8.57617L19.0593 6.16875C19.0631 6.15059 19.0624 6.13185 19.0575 6.11396C19.0525 6.09607 19.0433 6.0795 19.0306 6.0655C19.0196 6.05104 19.0052 6.03928 18.9885 6.03117C18.9718 6.02306 18.9534 6.01883 18.9347 6.01883H18.1995C18.1097 6.01883 18.0528 6.12092 18.0345 6.32333C17.9269 6.19159 17.7855 6.08866 17.6239 6.02457C17.4623 5.96047 17.286 5.9374 17.1123 5.95758L17.1172 5.957V5.95817ZM6.13983 5.95817H6.12272C5.66011 5.95817 5.24394 6.15008 4.95794 6.45458L4.95672 6.45575C4.64258 6.76587 4.46724 7.18053 4.46783 7.61192V7.62767V7.62708C4.45974 7.78564 4.48522 7.94413 4.54276 8.09307C4.6003 8.24201 4.68872 8.37834 4.80272 8.49392L4.80211 8.49333C5.01844 8.694 5.31422 8.81767 5.64056 8.81767L5.69922 8.8165H5.69617C5.89906 8.81358 6.09156 8.77333 6.26694 8.70158L6.25717 8.70508C6.43989 8.63858 6.59511 8.53825 6.72039 8.4105L6.721 8.40992C6.69839 8.46708 6.68433 8.53358 6.6825 8.60242V8.60358C6.6825 8.70158 6.72528 8.75117 6.80839 8.75117H7.4745C7.50053 8.7534 7.52677 8.75062 7.55167 8.74301C7.57656 8.73539 7.5996 8.72309 7.61942 8.70683C7.63925 8.69057 7.65546 8.67068 7.6671 8.64834C7.67873 8.626 7.68556 8.60165 7.68717 8.57675V8.57617L8.08378 6.16875C8.08711 6.15072 8.0862 6.13221 8.08113 6.11456C8.07606 6.09691 8.06694 6.08055 8.05444 6.06667C8.04345 6.05221 8.02902 6.04045 8.01234 6.03234C7.99567 6.02422 7.97722 6.02 7.9585 6.02H7.22333C7.1335 6.02 7.07667 6.12208 7.05894 6.3245C6.95025 6.1938 6.80855 6.09162 6.64714 6.02754C6.48572 5.96346 6.3099 5.93959 6.13617 5.95817L6.14106 5.95758L6.13983 5.95817ZM19.9296 4.66667L19.9198 4.66608C19.8906 4.66598 19.8625 4.67637 19.8409 4.69518C19.8194 4.71399 19.8061 4.73984 19.8037 4.76758L19.1754 8.60533C19.1703 8.6238 19.1702 8.64323 19.1753 8.66173C19.1803 8.68023 19.1902 8.69718 19.2042 8.71092C19.2157 8.72398 19.2301 8.73446 19.2464 8.74162C19.2627 8.74877 19.2804 8.75243 19.2983 8.75233H19.9399L19.9595 8.7535C20.0081 8.7535 20.0548 8.73506 20.0891 8.70224C20.1235 8.66942 20.1428 8.62491 20.1428 8.5785V8.57733L20.7698 4.80608L20.7704 4.79325C20.7704 4.75999 20.759 4.72764 20.7381 4.70108V4.70167C20.7271 4.69049 20.7138 4.68157 20.6991 4.67545C20.6844 4.66934 20.6685 4.66615 20.6525 4.66608L20.6433 4.66667H19.9296ZM12.7979 4.66667C12.7717 4.66338 12.745 4.66541 12.7196 4.67263C12.6943 4.67984 12.6708 4.69207 12.6507 4.70853C12.6307 4.72499 12.6145 4.7453 12.6032 4.76814C12.5919 4.79098 12.5858 4.81583 12.5852 4.84108L11.9576 8.60475C11.9544 8.62264 11.9553 8.641 11.9602 8.65853C11.9652 8.67606 11.9741 8.69234 11.9863 8.70625C11.9971 8.72076 12.0114 8.73258 12.028 8.74071C12.0446 8.74883 12.063 8.75302 12.0817 8.75292H12.8792C12.915 8.75289 12.9496 8.74101 12.9773 8.71931C13.0049 8.69761 13.0238 8.66743 13.0307 8.63392V8.63275L13.2049 7.56292C13.2101 7.51607 13.2345 7.47309 13.2727 7.44333C13.3144 7.41117 13.3651 7.39041 13.4182 7.38325H13.42C13.4695 7.3745 13.5263 7.36983 13.5844 7.36925C13.6357 7.36925 13.6974 7.37217 13.7683 7.37858C13.8458 7.38709 13.9238 7.39099 14.0018 7.39025C14.4495 7.39095 14.8809 7.22985 15.2093 6.93933L15.2081 6.9405C15.3719 6.77474 15.4983 6.57872 15.5797 6.36453C15.661 6.15033 15.6955 5.9225 15.6811 5.69508V5.69975C15.6943 5.54935 15.6672 5.39823 15.6026 5.26051C15.5379 5.12279 15.4377 5.00297 15.3114 4.91225L15.3089 4.9105C15.0173 4.73448 14.6757 4.64909 14.3312 4.66608H14.3348L12.7979 4.66667ZM1.80889 4.66667C1.78333 4.66405 1.75747 4.66659 1.733 4.67413C1.70854 4.68167 1.686 4.69404 1.66687 4.71044C1.64774 4.72683 1.63243 4.74688 1.62194 4.76929C1.61146 4.7917 1.60602 4.81596 1.606 4.8405V4.84167L0.977778 8.60533C0.974501 8.62323 0.975375 8.64159 0.980338 8.65913C0.9853 8.67666 0.994231 8.69295 1.0065 8.70683C1.0173 8.72135 1.0316 8.73317 1.04819 8.74129C1.06478 8.74941 1.08318 8.7536 1.10183 8.7535H1.83761C1.86384 8.75678 1.89051 8.75475 1.91586 8.74754C1.94121 8.74033 1.96469 8.72809 1.98476 8.71163C2.00483 8.69518 2.02103 8.67487 2.03232 8.65203C2.04361 8.62919 2.04973 8.60433 2.05028 8.57908L2.22444 7.56467C2.22974 7.51799 2.25384 7.4751 2.29167 7.44508C2.33336 7.41292 2.38403 7.39216 2.43711 7.385H2.43894C2.49302 7.3759 2.54781 7.37121 2.60272 7.371H2.60333C2.65467 7.371 2.71578 7.37392 2.78667 7.38033C2.86395 7.38882 2.94171 7.39271 3.0195 7.392C3.48578 7.392 3.90989 7.22108 4.22767 6.94108L4.22644 6.94225C4.39014 6.77645 4.51655 6.58042 4.59789 6.36624C4.67924 6.15206 4.7138 5.92425 4.69944 5.69683V5.7015C4.7126 5.5511 4.68558 5.39998 4.62092 5.26226C4.55626 5.12454 4.45607 5.00472 4.32972 4.914L4.32728 4.91225C4.03693 4.73688 3.69696 4.65132 3.35378 4.66725H3.35744L1.80889 4.66667ZM17.0769 8.07042L17.0476 8.071C16.8914 8.07114 16.7403 8.01844 16.621 7.92225L16.6222 7.92283C16.5671 7.87433 16.5231 7.81544 16.493 7.74987C16.4629 7.68431 16.4474 7.6135 16.4474 7.54192L16.4481 7.51567V7.49992C16.4481 7.28175 16.5403 7.084 16.6901 6.9405C16.8373 6.79642 17.0427 6.70717 17.27 6.70717H17.2902H17.2889L17.3097 6.70658C17.4741 6.70658 17.6238 6.76433 17.7387 6.85942L17.7381 6.85883C17.7949 6.90899 17.8401 6.96981 17.871 7.03747C17.902 7.10514 17.9179 7.17818 17.9178 7.252L17.9172 7.28V7.27883V7.29283C17.9172 7.50808 17.8237 7.70292 17.6727 7.84117C17.5965 7.91367 17.506 7.97113 17.4065 8.01027C17.307 8.0494 17.2004 8.06944 17.0928 8.06925H17.0775L17.0769 8.07042ZM6.08972 8.07042L6.05917 8.071C5.89906 8.071 5.75178 8.015 5.63933 7.92225L5.63994 7.92283C5.58621 7.87378 5.54345 7.81484 5.51424 7.74957C5.48504 7.6843 5.47001 7.61406 5.47006 7.54308L5.47067 7.51567V7.49992C5.47067 7.28175 5.56294 7.084 5.71267 6.9405C5.85994 6.79642 6.06467 6.70717 6.292 6.70717H6.31339H6.31217L6.33294 6.70658C6.49733 6.70658 6.64706 6.76433 6.76194 6.85942L6.76133 6.85883C6.81792 6.90895 6.86304 6.9697 6.89386 7.03726C6.92467 7.10482 6.94051 7.17773 6.94039 7.25142L6.93978 7.28V7.27883V7.29925C6.93978 7.5145 6.84628 7.70817 6.69533 7.84642C6.5387 7.9903 6.32972 8.0706 6.11233 8.07042H6.08972ZM13.3662 6.57708L13.5306 5.59067C13.5319 5.57614 13.5362 5.56201 13.5433 5.54907C13.5503 5.53614 13.5599 5.52465 13.5716 5.51528C13.5833 5.50591 13.5968 5.49883 13.6114 5.49445C13.626 5.49006 13.6413 5.48847 13.6565 5.48975H13.8301L13.8673 5.48917C13.9731 5.48917 14.0776 5.49617 14.1796 5.50958L14.168 5.50842C14.2627 5.52475 14.3452 5.56558 14.41 5.62392C14.4469 5.65722 14.4763 5.69737 14.4964 5.74191C14.5165 5.78645 14.5268 5.83443 14.5267 5.88292L14.5261 5.90508V5.90392C14.539 6.00137 14.5264 6.10034 14.4895 6.19203C14.4526 6.28373 14.3925 6.3653 14.3147 6.4295L14.3141 6.43008C14.1193 6.53617 13.8961 6.58488 13.6724 6.57008H13.6761L13.3674 6.57942L13.3662 6.57708ZM2.37906 6.57708L2.54344 5.59067C2.54467 5.57612 2.54892 5.56194 2.55593 5.54897C2.56294 5.536 2.57258 5.52448 2.58429 5.51509C2.596 5.5057 2.60955 5.49863 2.62415 5.49428C2.63875 5.48993 2.65411 5.48839 2.66933 5.48975H2.85206C3.04771 5.47607 3.24357 5.51358 3.41856 5.59825L3.41244 5.59533C3.52794 5.66592 3.56706 5.81583 3.52856 6.04217C3.52561 6.12667 3.50141 6.20925 3.45802 6.28296C3.41463 6.35666 3.3533 6.41932 3.27922 6.46567L3.27739 6.46683C2.98774 6.56865 2.6776 6.60615 2.3705 6.5765L2.37906 6.57708Z" fill="black"/>
</g>
<defs>
<clipPath id="clip0_151_483">
<rect width="22" height="14" fill="white"/>
</clipPath>
</defs>
</svg>
