<svg width="22" height="18" viewBox="0 0 22 18" fill="none" xmlns="http://www.w3.org/2000/svg">
<path d="M21.213 2.65605C20.4495 2.99352 19.6399 3.21529 18.811 3.31405C19.6838 2.79084 20.3369 1.96857 20.649 1.00005C19.829 1.48805 18.93 1.83005 17.994 2.01505C17.3646 1.34163 16.5304 0.895012 15.621 0.744633C14.7116 0.594255 13.7779 0.74854 12.9653 1.1835C12.1526 1.61846 11.5064 2.30973 11.1271 3.14984C10.7478 3.98995 10.6567 4.93183 10.868 5.82905C9.20488 5.74609 7.57783 5.31413 6.09257 4.56125C4.60731 3.80837 3.29707 2.75141 2.247 1.45905C1.87538 2.09754 1.68005 2.82329 1.681 3.56205C1.681 5.01205 2.42 6.29305 3.541 7.04305C2.87719 7.02092 2.2281 6.84169 1.647 6.52005V6.57105C1.64697 7.53692 1.98103 8.47307 2.59253 9.22072C3.20403 9.96837 4.05531 10.4815 5.002 10.673C4.38567 10.8404 3.73928 10.8651 3.112 10.745C3.37892 11.5764 3.89921 12.3035 4.6 12.8244C5.30078 13.3454 6.14696 13.6341 7.02 13.65C6.15219 14.3312 5.15871 14.8348 4.09627 15.1319C3.03384 15.4291 1.92328 15.5141 0.827999 15.382C2.7397 16.6115 4.9651 17.2642 7.238 17.262C14.932 17.262 19.138 10.889 19.138 5.36205C19.138 5.18138 19.134 5.00105 19.126 4.82105C19.9444 4.22936 20.6507 3.49657 21.212 2.65705" fill="white"/>
</svg>
