<svg width="32" height="11" viewBox="0 0 32 11" fill="none" xmlns="http://www.w3.org/2000/svg">
<path d="M16.5496 3.50256C16.5314 5.02878 17.8325 5.88042 18.8126 6.38681C19.8196 6.90633 20.1579 7.23951 20.1539 7.70416C20.1464 8.41519 19.3506 8.72902 18.606 8.74121C17.3069 8.76255 16.5515 8.36933 15.951 8.07193L15.483 10.3937C16.0855 10.6881 17.2011 10.9448 18.358 10.9561C21.0736 10.9561 22.8503 9.5348 22.8599 7.33122C22.8705 4.53457 19.2114 4.37978 19.2364 3.12975C19.245 2.75072 19.5861 2.34624 20.3336 2.24339C20.7036 2.19144 21.725 2.15168 22.883 2.71705L23.3375 0.47067C22.7148 0.23026 21.9144 5.43594e-05 20.9179 5.43594e-05C18.3619 5.43594e-05 16.5641 1.44066 16.5496 3.50256ZM27.7048 0.193548C27.2089 0.193548 26.791 0.500223 26.6045 0.970838L22.7254 10.7911H25.439L25.979 9.20878H29.295L29.6082 10.7911H32L29.9129 0.193548H27.7048ZM28.0844 3.05633L28.8675 7.03581H26.7227L28.0844 3.05633ZM13.2595 0.193681L11.1205 10.7909H13.7064L15.8444 0.193416L13.2595 0.193681ZM9.43412 0.193681L6.74263 7.40663L5.65387 1.27354C5.52612 0.588886 5.02163 0.193548 4.46138 0.193548H0.061625L0 0.501284C0.90325 0.70909 1.9295 1.04426 2.55125 1.40289C2.93175 1.62196 3.04025 1.81346 3.16525 2.33404L5.22738 10.7911H7.96L12.1495 0.193548L9.43412 0.193681Z" fill="url(#paint0_linear_151_482)"/>
<defs>
<linearGradient id="paint0_linear_151_482" x1="1471.17" y1="32.9338" x2="1504.79" y2="-1092.15" gradientUnits="userSpaceOnUse">
<stop stop-color="#222357"/>
<stop offset="1" stop-color="#254AA5"/>
</linearGradient>
</defs>
</svg>
